PathFileType	4	(X/Y/Z)	/Users/itak/Documents/Research/Walk-IL/dataset/trc/00527_00183.trc
DataRate	CameraRate	NumFrames	NumMarkers	Units	OrigDataRate	OrigDataStartFrame	OrigNumFrames
100.000000	100.000000	4	53	mm	100.000000	357	477
Frame#	Time	RPSI			LPSI			L3			STRN			T10			C7			CLAV			RBAK			LBAK			LSHO			LUPA			LAEL			LAOL			LWTS			LWPS			LFRA			LIFD			LHPS			LHTS			RSHO			RUPA			RAEL			RAOL			RWTS			RWPS			RFRA			RIFD			RHTS			RHPS			RBHD			LFHD			RFHD			LBHD			LHIP			RHIP			RASI			LASI			LKNE			LTHI			LANK			LTIP			LTOE			LMT1			LMT5			LHEE			RKNE			RTHI			RANK			RTIP			RTOE			RMT1			RMT5			RHEE			
		X1	Y1	Z1	X2	Y2	Z2	X3	Y3	Z3	X4	Y4	Z4	X5	Y5	Z5	X6	Y6	Z6	X7	Y7	Z7	X8	Y8	Z8	X9	Y9	Z9	X10	Y10	Z10	X11	Y11	Z11	X12	Y12	Z12	X13	Y13	Z13	X14	Y14	Z14	X15	Y15	Z15	X16	Y16	Z16	X17	Y17	Z17	X18	Y18	Z18	X19	Y19	Z19	X20	Y20	Z20	X21	Y21	Z21	X22	Y22	Z22	X23	Y23	Z23	X24	Y24	Z24	X25	Y25	Z25	X26	Y26	Z26	X27	Y27	Z27	X28	Y28	Z28	X29	Y29	Z29	X30	Y30	Z30	X31	Y31	Z31	X32	Y32	Z32	X33	Y33	Z33	X34	Y34	Z34	X35	Y35	Z35	X36	Y36	Z36	X37	Y37	Z37	X38	Y38	Z38	X39	Y39	Z39	X40	Y40	Z40	X41	Y41	Z41	X42	Y42	Z42	X43	Y43	Z43	X44	Y44	Z44	X45	Y45	Z45	X46	Y46	Z46	X47	Y47	Z47	X48	Y48	Z48	X49	Y49	Z49	X50	Y50	Z50	X51	Y51	Z51	X52	Y52	Z52	X53	Y53	Z53	

358	3.57	348.5837707519531	930.2193603515625	358.101318359375	412.3584289550781	917.317626953125	252.6401977539062	373.6760559082031	994.1160888671875	299.7772827148438	558.15576171875	1173.356079101562	391.5255432128906	353.2454223632812	1098.417236328125	295.6840515136719	374.7161560058594	1330.818481445312	306.9668884277344	519.2606201171875	1264.993896484375	371.3161926269531	303.410400390625	1206.192260742188	370.9372863769531	390.1685791015625	1274.161254882812	220.4954986572266	503.2203674316406	1325.028076171875	187.5378723144531	516.3529052734375	1196.262939453125	131.3455963134766	534.3076171875	986.6198120117188	115.480110168457	445.3856811523438	977.6912231445312	159.9299011230469	604.3950805664062	797.3573608398438	180.3641357421875	536.5653076171875	761.133544921875	125.9024124145508	548.5231323242188	900.2481079101562	121.2472305297852	597.8187255859375	640.6469116210938	199.5937194824219	556.27392578125	707.0169677734375	138.9331359863281	614.2113037109375	717.7949829101562	167.4635467529297	363.7298889160156	1331.20263671875	463.8019714355469	331.4351806640625	1264.683227539062	515.3443603515625	363.6645812988281	1008.715209960938	600.8306274414062	333.1855163574219	976.2368774414062	551.5122680664062	517.096923828125	849.8035888671875	642.6170043945312	440.2589721679688	806.276611328125	660.3776245117188	378.7843322753906	958.2096557617188	617.961181640625	564.471923828125	702.1485595703125	680.9130859375	547.1895751953125	770.4907836914062	690.606689453125	480.6597595214844	746.4302368164062	685.494140625	406.2994384765625	1500.74462890625	406.7431335449219	585.2354736328125	1532.041870117188	323.2947692871094	535.5762939453125	1534.312622070312	440.2033081054688	455.2051696777344	1496.2099609375	254.108642578125	577.9172973632812	851.2222900390625	205.8285675048828	372.4546203613281	844.8582153320312	525.8285522460938	492.4396362304688	890.329833984375	521.1422119140625	613.2033081054688	899.3982543945312	310.7352905273438	721.884521484375	475.5894470214844	328.2956237792969	675.658447265625	615.9950561523438	273.5445861816406	817.0986328125	50.64926147460938	370.666259765625	764.0126342773438	331.6607971191406	339.2127990722656	937.0289306640625	116.6594161987305	516.96142578125	863.5160522460938	87.34711456298828	511.1916198730469	909.3006591796875	80.73866271972656	416.9230041503906	749.0452880859375	33.97267150878906	401.6995849609375	372.0557250976562	458.6311645507812	459.5942993164062	395.1026916503906	712.3270263671875	533.9031982421875	215.24609375	64.59749603271484	334.0824584960938	352.0223083496094	315.9259948730469	419.8916625976562	407.4262084960938	36.00095748901367	395.1336669921875	367.9328308105469	41.23611068725586	329.2979431152344	305.0643005371094	46.16207885742188	399.9633178710938	191.1190795898438	65.9249267578125	267.2087097167969	
359	3.58	357.7689514160156	929.632080078125	360.2919311523438	422.1859436035156	916.7337036132812	255.2013854980469	382.9927978515625	993.045166015625	302.27783203125	566.576904296875	1172.649169921875	394.7401428222656	362.0962829589844	1097.240478515625	297.99755859375	383.1234741210938	1329.683837890625	309.1529541015625	527.5559692382812	1264.193725585938	374.1878356933594	311.8198852539062	1205.000610351562	372.8992919921875	399.0802917480469	1272.9638671875	222.8086700439453	512.1693115234375	1324.009155273438	190.2597045898438	525.4600830078125	1195.178344726562	134.2282409667969	542.930908203125	985.5254516601562	118.4066390991211	454.1213684082031	976.7362060546875	162.9431304931641	612.3159790039062	795.7293701171875	182.9054718017578	543.9506225585938	759.8715209960938	129.0243530273438	556.887451171875	899.0953979492188	124.1354141235352	604.7774658203125	639.0925903320312	202.5196990966797	563.1228637695312	705.4199829101562	142.3512115478516	621.5989379882812	716.10888671875	170.2300262451172	371.503662109375	1330.201171875	465.9278259277344	339.0294799804688	1263.637329101562	517.3302001953125	371.6542663574219	1007.594970703125	602.5814208984375	341.3722839355469	975.0634765625	553.1434936523438	526.1776733398438	850.0546264648438	644.7381591796875	449.8299560546875	805.6752319335938	662.5004272460938	386.9369201660156	957.2225952148438	619.731689453125	575.2694702148438	702.8757934570312	682.8379516601562	557.1265869140625	771.0172119140625	692.6090698242188	490.8609924316406	746.2210693359375	687.5143432617188	414.2215576171875	1499.80859375	409.0906066894531	593.2557373046875	1531.205444335938	325.8931579589844	543.4016723632812	1533.47607421875	442.7381896972656	463.3186950683594	1495.17431640625	256.4916381835938	587.9307861328125	850.4694213867188	209.3163757324219	380.4404296875	844.1998291015625	528.06005859375	500.6867065429688	889.372802734375	524.3411254882812	622.6019897460938	898.5367431640625	314.530517578125	729.9451293945312	474.4501037597656	332.0592346191406	684.7632446289062	615.1036987304688	277.5764770507812	824.1754150390625	49.15034866333008	374.6657409667969	771.8982543945312	330.1932983398438	343.0479431152344	943.837890625	114.3961563110352	521.2172241210938	870.2911376953125	85.43675231933594	515.2848510742188	916.352294921875	78.72079467773438	421.1679382324219	756.074951171875	32.87932205200195	405.3274536132812	378.5464477539062	458.2465209960938	461.3237609863281	402.5908813476562	711.6055297851562	536.11279296875	216.2009887695312	66.80690002441406	333.902587890625	356.6647338867188	315.9176940917969	421.1923217773438	407.5330200195312	36.02102279663086	395.2251281738281	368.4989624023438	41.66029739379883	329.2222900390625	305.3936462402344	46.75788497924805	400.13232421875	192.2674102783203	69.09068298339844	266.9681701660156	
360	3.59	367.1679077148438	929.1285400390625	362.4781799316406	432.2158508300781	916.2391967773438	257.740234375	392.5216979980469	992.015869140625	304.78515625	575.1552124023438	1172.010864257812	397.8795471191406	371.0809020996094	1096.072021484375	300.2974243164062	391.6429748535156	1328.57275390625	311.2920227050781	536.0103149414062	1263.4521484375	376.9908447265625	320.3782043457031	1203.824584960938	374.8275451660156	408.1005249023438	1271.779418945312	225.0807495117188	521.2058715820312	1323.021606445312	192.9031982421875	534.6201782226562	1194.10986328125	137.0532073974609	551.572021484375	984.461181640625	121.23095703125	462.9349670410156	975.7864990234375	165.9891204833984	620.4671630859375	794.2257690429688	185.3948059082031	551.5628662109375	758.6724243164062	132.1464996337891	565.3193359375	898.0020141601562	126.9374465942383	612.174072265625	637.6702270507812	205.3799743652344	570.2980346679688	703.8912353515625	145.7210693359375	629.3092651367188	714.574462890625	172.9288787841797	379.4322204589844	1329.200561523438	468.0129699707031	346.7507019042969	1262.59716796875	519.2523803710938	379.5411682128906	1006.431579589844	604.211669921875	349.4509582519531	973.8854370117188	554.6268310546875	534.9545288085938	850.0703125	646.722900390625	459.0473937988281	804.9484252929688	664.4774780273438	394.9394226074219	956.1746215820312	621.3735961914062	585.5554809570312	703.302734375	684.5481567382812	566.6689453125	771.2525024414062	694.4325561523438	500.6577453613281	745.8087768554688	689.3495483398438	422.1163635253906	1498.8974609375	411.3402099609375	601.2577514648438	1530.511596679688	328.4599304199219	551.1622314453125	1532.767700195312	445.2160339355469	471.4930114746094	1494.189086914062	258.7862243652344	598.1135864257812	849.7539672851562	212.7830657958984	388.6399230957031	843.5792846679688	530.2789306640625	509.1695251464844	888.4420166015625	527.5372924804688	632.1649169921875	897.6982421875	318.2905883789062	738.0652465820312	473.36767578125	336.0089721679688	693.8680419921875	614.1987915039062	281.7630310058594	829.6741943359375	47.39583969116211	377.8086242675781	779.3250732421875	328.5341186523438	346.7359313964844	949.6746826171875	110.873649597168	524.5073852539062	875.9451293945312	82.62796783447266	518.5131225585938	922.008056640625	75.80637359619141	424.4569702148438	761.53173828125	31.80971908569336	408.2530822753906	385.2984008789062	457.8752746582031	463.0866088867188	410.3274841308594	710.90966796875	538.2900390625	217.2779388427734	69.21187591552734	333.697265625	361.5108642578125	315.9696350097656	422.5603637695312	407.648681640625	36.05329895019531	395.316162109375	369.1350708007812	42.15061950683594	329.1214904785156	305.735107421875	47.38716125488281	400.3306579589844	193.5956115722656	72.51508331298828	266.6917419433594	
361	3.6	376.78125	928.6981811523438	364.6707153320312	442.427490234375	915.8317260742188	260.2518005371094	402.2471618652344	991.0316772460938	307.2861328125	583.885986328125	1171.4443359375	400.9386901855469	380.1976013183594	1094.920654296875	302.5631408691406	400.2700805664062	1327.498657226562	313.3881530761719	544.6201782226562	1262.775512695312	379.7262268066406	329.0762023925781	1202.667846679688	376.7237243652344	417.2199096679688	1270.621948242188	227.3094482421875	530.3212280273438	1322.073364257812	195.4675445556641	543.8320922851562	1193.0654296875	139.8180999755859	560.2518310546875	983.4315185546875	123.9594268798828	471.8290710449219	974.8502807617188	169.0551147460938	628.843994140625	792.8583374023438	187.8822784423828	559.4405517578125	757.54345703125	135.2527160644531	573.8379516601562	896.9624633789062	129.6645965576172	620.0030517578125	636.38037109375	208.19482421875	577.8638305664062	702.4642333984375	148.9930725097656	637.3433837890625	713.1983032226562	175.5956420898438	387.5084533691406	1328.201416015625	470.0708312988281	354.6004028320312	1261.553588867188	521.117431640625	387.3365173339844	1005.223693847656	605.7275390625	357.4471130371094	972.6979370117188	555.9642944335938	543.4268188476562	849.8309326171875	648.5888671875	467.8962097167969	804.0888671875	666.3229370117188	402.800048828125	955.0572509765625	622.8989868164062	595.297607421875	703.403564453125	686.08984375	575.8030395507812	771.17626953125	696.1114501953125	510.0217590332031	745.1824340820312	691.030517578125	429.9940490722656	1498.022094726562	413.491943359375	609.2490234375	1529.967651367188	330.9949035644531	558.872314453125	1532.193725585938	447.63623046875	479.7356567382812	1493.283569335938	261.0008544921875	608.4450073242188	849.088623046875	216.2072448730469	397.0727844238281	842.9909057617188	532.4996948242188	517.9144897460938	887.5429077148438	530.7294921875	641.8790283203125	896.8955688476562	321.9865417480469	746.2411499023438	472.3540344238281	340.109375	702.9539794921875	613.2919921875	286.0547790527344	833.8771362304688	45.54439544677734	380.2036743164062	786.3699951171875	326.7415161132812	350.3099060058594	954.63427734375	106.2596054077148	527.072021484375	880.601318359375	79.06587219238281	521.05078125	926.4796752929688	72.13712310791016	427.0042724609375	765.659423828125	30.92010307312012	410.5637512207031	392.2964172363281	457.5207824707031	464.8908081054688	418.3238220214844	710.2415771484375	540.4569702148438	218.4883117675781	71.81693267822266	333.4754028320312	366.5491027832031	316.0863342285156	424.00830078125	407.7666931152344	36.09989547729492	395.4060974121094	369.8208312988281	42.70073699951172	329.0484924316406	306.1047668457031	48.04869079589844	400.5472412109375	195.1223754882812	76.20463562011719	266.3912353515625	
